<svg xmlns="http://www.w3.org/2000/svg" viewBox="0 0 128 128" id="google-plus"><path fill-rule="evenodd" d="M75.457 3.179c-4.521 6.014-10.339 6.847-18.129 6.112 8.828 5.981 11.789 13.516 11.749 22.113-.041 8.771-5.005 15.075-11.523 20.505-7.675 6.39-7.654 10.638-.236 17.366 2.246 2.036 4.811 3.721 7.204 5.597 16.743 13.133 14.897 36.027-4.253 45.243-16.512 7.948-33.597 7.218-49.774-1.308-11.819-6.229-13.75-18.243-5.311-28.648 7.372-9.088 17.408-13.059 28.784-14.081 2.515-.226 5.058-.132 8.585-.206-4.015-5.315-6.912-10.437-3.179-16.669-4.189-.469-7.891-.529-11.417-1.347-10.451-2.425-17.338-8.984-20.189-19.28-2.744-9.91.383-18.32 7.764-25.266C21 8.163 27.506 4.607 34.906 4.174c13.292-.781 26.637-.703 40.551-.995zM40.886 118.801l.444 1.258c5.926-2.13 12.362-3.413 17.659-6.592 7.929-4.759 9.31-17.233 3.295-23.588C49.89 76.78 35.05 76.374 21.317 86.069c-9.719 6.863-9.849 19.058-.772 26.825 5.864 5.016 12.825 6.465 20.341 5.907zM20.124 26.509c.663 11 4.188 19.3 12.359 25.079 8.689 6.147 18.389 2.896 21.904-7.163 4.034-11.543-1.363-26.589-11.766-32.797-8.63-5.151-17.997-1.852-21.198 7.665-.897 2.666-1.022 5.593-1.299 7.216z" clip-rule="evenodd"></path><path fill-rule="evenodd" d="m104.045 32.496.508 24.145c-2.004.141-3.747.265-6.145.432l-.511-24.278-24.11.508-.129-6.146 23.86-.502-.508-24.184 6.263-.132.505 24.006 24.092-.508.13 6.155-23.955.504z" clip-rule="evenodd"></path></svg>